<svg xmlns="http://www.w3.org/2000/svg" width="23.843" height="22.81" viewBox="0 0 23.843 22.81">
  <defs>
    <style>
      .cls-1 {
        fill: gray;
        fill-rule: evenodd;
      }
    </style>
  </defs>
  <path id="Forma_1" data-name="Forma 1" class="cls-1" d="M488.545,5373.23v8.83h-5.119v-8.24c0-2.07-.738-3.48-2.59-3.48a2.8,2.8,0,0,0-2.625,1.87,3.537,3.537,0,0,0-.175,1.25v8.6h-5.113s0.068-13.95,0-15.4h5.114v2.19a0.22,0.22,0,0,0-.029.05h0.029v-0.05a5.083,5.083,0,0,1,4.612-2.55C486.023,5366.3,488.545,5368.5,488.545,5373.23Zm-20.976-13.99a2.667,2.667,0,1,0-.066,5.32h0.031A2.668,2.668,0,1,0,467.569,5359.24Zm-2.591,22.82h5.116v-15.4h-5.116v15.4Z" transform="translate(-464.688 -5359.25)"/>
</svg>
