<svg xmlns="http://www.w3.org/2000/svg" width="27.844" height="23.03" viewBox="0 0 27.844 23.03">
  <defs>
    <style>
      .cls-1 {
        fill: gray;
        fill-rule: evenodd;
      }
    </style>
  </defs>
  <path id="Forma_1" data-name="Forma 1" class="cls-1" d="M536.071,5359.89a11.448,11.448,0,0,1-3.629,1.41,5.655,5.655,0,0,0-4.167-1.84,5.769,5.769,0,0,0-5.712,5.82,5.914,5.914,0,0,0,.148,1.32,16.111,16.111,0,0,1-11.772-6.08,5.9,5.9,0,0,0,1.768,7.77,5.563,5.563,0,0,1-2.587-.73v0.07a5.805,5.805,0,0,0,4.581,5.71,5.73,5.73,0,0,1-1.5.2,6.338,6.338,0,0,1-1.075-.1,5.736,5.736,0,0,0,5.334,4.04,11.328,11.328,0,0,1-7.092,2.49,12.243,12.243,0,0,1-1.363-.08,15.951,15.951,0,0,0,8.755,2.61c10.5,0,16.249-8.86,16.249-16.55l-0.019-.76a11.543,11.543,0,0,0,2.854-3,11.3,11.3,0,0,1-3.279.91A5.835,5.835,0,0,0,536.071,5359.89Z" transform="translate(-509 -5359.47)"/>
</svg>
