<svg xmlns="http://www.w3.org/2000/svg" width="22.969" height="22.97" viewBox="0 0 22.969 22.97">
  <defs>
    <style>
      .cls-1 {
        fill: gray;
        fill-rule: evenodd;
      }
    </style>
  </defs>
  <path id="Forma_1" data-name="Forma 1" class="cls-1" d="M577.255,5358.82H558.879a2.3,2.3,0,0,0-2.3,2.29v18.38a2.309,2.309,0,0,0,2.3,2.3h18.376a2.309,2.309,0,0,0,2.3-2.3v-18.38A2.3,2.3,0,0,0,577.255,5358.82Zm-9.188,6.89a4.6,4.6,0,1,1-4.594,4.59A4.609,4.609,0,0,1,568.067,5365.71Zm-8.614,13.78a0.541,0.541,0,0,1-.574-0.57v-9.77h2.411a3.946,3.946,0,0,0-.115,1.15,6.892,6.892,0,0,0,13.783,0,3.946,3.946,0,0,0-.115-1.15h2.412v9.77a0.542,0.542,0,0,1-.575.57H559.453Zm17.8-15.5a0.542,0.542,0,0,1-.575.57h-2.3a0.542,0.542,0,0,1-.574-0.57v-2.3a0.544,0.544,0,0,1,.574-0.58h2.3a0.545,0.545,0,0,1,.575.58v2.3Z" transform="translate(-556.594 -5358.81)"/>
</svg>
